<?xml version="1.0" encoding="UTF-8" standalone="no"?>
<svg
   xmlns:dc="http://purl.org/dc/elements/1.1/"
   xmlns:cc="http://creativecommons.org/ns#"
   xmlns:rdf="http://www.w3.org/1999/02/22-rdf-syntax-ns#"
   xmlns:svg="http://www.w3.org/2000/svg"
   xmlns="http://www.w3.org/2000/svg"
   xmlns:sodipodi="http://sodipodi.sourceforge.net/DTD/sodipodi-0.dtd"
   xmlns:inkscape="http://www.inkscape.org/namespaces/inkscape"
   enable-background="new 0 0 512 512"
   height="512px"
   id="Layer_1"
   version="1.1"
   viewBox="0 0 512 512"
   width="512px"
   xml:space="preserve"
   inkscape:version="0.48.5 r10040"
   sodipodi:docname="1468173064_rss.svg"><metadata
     id="metadata11"><rdf:RDF><cc:Work
         rdf:about=""><dc:format>image/svg+xml</dc:format><dc:type
           rdf:resource="http://purl.org/dc/dcmitype/StillImage" /><dc:title></dc:title></cc:Work></rdf:RDF></metadata><defs
     id="defs9" /><sodipodi:namedview
     pagecolor="#ffffff"
     bordercolor="#666666"
     borderopacity="1"
     objecttolerance="10"
     gridtolerance="10"
     guidetolerance="10"
     inkscape:pageopacity="0"
     inkscape:pageshadow="2"
     inkscape:window-width="1068"
     inkscape:window-height="687"
     id="namedview7"
     showgrid="false"
     inkscape:zoom="0.4609375"
     inkscape:cx="182.23729"
     inkscape:cy="256"
     inkscape:window-x="0"
     inkscape:window-y="0"
     inkscape:window-maximized="0"
     inkscape:current-layer="g3" /><g
     id="g3"><path
       clip-rule="evenodd"
       d="M512,486.596V25.705C512,11.49,500.503,0,486.591,0H25.701   C11.487,0,0,11.49,0,25.705v460.891C0,500.519,11.487,512,25.701,512h460.89C500.503,512,512,500.519,512,486.596L512,486.596z    M87.09,87.096c182.667,0,331.155,144.562,337.811,325.418v12.399h-67.439C357.158,275.812,236.194,155.145,87.09,155.145V87.096z    M87.09,198.996c124.902,0,226.217,101.008,226.519,225.918H247.68c0-88.609-71.979-160.291-160.59-160.291V198.996z    M135.784,331.461c25.399,0,45.966,20.562,45.966,45.965s-20.566,45.965-45.966,45.965c-25.399,0-45.966-20.562-45.966-45.965   S110.385,331.461,135.784,331.461L135.784,331.461z"
       fill="#040404"
       fill-rule="evenodd"
       id="path5"
       style="fill:#ffffff;fill-opacity:1" /></g></svg>